<svg width="21" height="26" viewBox="0 0 21 26" fill="none" xmlns="http://www.w3.org/2000/svg">
<path d="M12.6813 17.9905L11.4427 17.9284L12.3492 14.7465C12.4055 14.5482 12.3113 14.3379 12.1236 14.2456C11.9369 14.1534 11.7079 14.2025 11.5784 14.3646L7.49451 19.4629C7.3932 19.5896 7.37206 19.7612 7.43989 19.9077C7.50772 20.0543 7.65395 20.1517 7.8178 20.1594L9.05811 20.2215L8.15078 23.4034C8.0944 23.6017 8.18866 23.812 8.37629 23.9043C8.43971 23.9353 8.50754 23.9508 8.57449 23.9508C8.70663 23.9508 8.83524 23.8931 8.92157 23.7862L13.0054 18.6879C13.1067 18.5612 13.1279 18.3896 13.06 18.2431C12.9922 18.0965 12.8451 17.9982 12.6813 17.9905ZM9.59458 21.5482L10.0544 19.9344C10.0905 19.8086 10.0659 19.6724 9.98746 19.5663C9.90994 19.4603 9.78573 19.3948 9.65272 19.3879L8.71103 19.3396L10.9054 16.5999L10.4455 18.2137C10.4094 18.3396 10.4341 18.4758 10.5125 18.5818C10.59 18.6879 10.7142 18.7534 10.8472 18.7603L11.788 18.8086L9.59458 21.5482Z" fill="white"/>
<path d="M15.3751 7.23291H5.1249C4.88177 7.23291 4.68445 7.42601 4.68445 7.66394V13.1657C4.68445 13.4036 4.88177 13.5967 5.1249 13.5967H15.376C15.6191 13.5967 15.8164 13.4036 15.8164 13.1657V7.66394C15.8155 7.42515 15.6191 7.23291 15.3751 7.23291ZM14.9346 12.7338H5.56535V8.09498H14.9355L14.9346 12.7338Z" fill="white"/>
<path d="M19.8095 25.5C20.0527 25.5 20.25 25.3069 20.25 25.069C20.25 24.831 20.0527 24.6379 19.8095 24.6379H17.4699V7.13276C17.4699 6.28276 16.7634 5.59052 15.8948 5.59052H4.60606C3.73749 5.59052 3.03101 6.28276 3.03101 7.13276V14.275H1.23485V3.17931H11.2498C11.3899 4.20259 12.2787 4.99655 13.3613 4.99655H15.4068C15.6499 4.99655 15.8473 4.80345 15.8473 4.56552V4.43276H17.0294C17.2726 4.43276 17.4699 4.23966 17.4699 4.00172C17.4699 3.76379 17.2726 3.57069 17.0294 3.57069H15.8473V1.92586H17.0294C17.2726 1.92586 17.4699 1.73276 17.4699 1.49483C17.4699 1.2569 17.2726 1.06379 17.0294 1.06379H15.8473V0.931034C15.8473 0.693103 15.6499 0.5 15.4068 0.5H13.3613C12.2778 0.5 11.3899 1.29483 11.2498 2.31724H0.794398C0.551269 2.31724 0.353946 2.51034 0.353946 2.74828V14.706C0.353946 14.944 0.551269 15.1371 0.794398 15.1371H3.03101V24.6379H0.690451C0.447322 24.6379 0.25 24.831 0.25 25.069C0.25 25.3069 0.447322 25.5 0.690451 25.5H3.47146H17.0294H19.8095ZM12.1017 2.59483C12.1017 1.91552 12.6672 1.36207 13.3613 1.36207H14.9664V4.13534H13.3613C12.6672 4.13534 12.1017 3.5819 12.1017 2.90172V2.59483ZM3.91191 24.6379V7.13276C3.91191 6.7569 4.22375 6.45259 4.60606 6.45259H15.8939C16.2771 6.45259 16.5881 6.75776 16.5881 7.13276V24.6379H3.91191Z" fill="white"/>
</svg>
