<svg width="21" height="26" viewBox="0 0 21 26" fill="none" xmlns="http://www.w3.org/2000/svg">
<path d="M20.3602 15.0582C20.2558 14.7907 20.0962 14.5481 19.892 14.3462C19.6878 14.1443 19.4434 13.9875 19.1747 13.8862L12.7004 11.4465C12.6553 11.1511 12.5514 10.8678 12.3948 10.6133C12.2382 10.3588 12.0321 10.1384 11.7887 9.96498L12.1337 6.76408C12.2747 6.80972 12.415 6.86132 12.5535 6.91921C12.6529 6.96075 12.7647 6.96111 12.8643 6.92022C12.9639 6.87932 13.0432 6.80052 13.0848 6.70115C13.1263 6.60178 13.1267 6.48998 13.0858 6.39035C13.0449 6.29071 12.9661 6.2114 12.8667 6.16987C12.6563 6.08235 12.4411 6.00655 12.2223 5.94279L12.3327 4.91806C13.0768 5.11575 13.7831 5.43503 14.4231 5.86299C14.5126 5.92258 14.6222 5.94421 14.7276 5.92313C14.8331 5.90205 14.9259 5.83999 14.9857 5.75056C15.0454 5.66113 15.0673 5.55164 15.0464 5.44613C15.0255 5.34062 14.9636 5.24771 14.8743 5.18778C14.1254 4.68646 13.2953 4.31867 12.4208 4.10072L12.5302 3.08604L12.5303 3.08462C14.1525 3.46109 15.6362 4.28612 16.812 5.46552C16.8497 5.5033 16.8945 5.53327 16.9438 5.55373C16.9931 5.57419 17.0459 5.58472 17.0993 5.58473C17.1526 5.58474 17.2055 5.57423 17.2548 5.55379C17.3041 5.53336 17.3489 5.5034 17.3866 5.46563C17.4243 5.42787 17.4542 5.38304 17.4746 5.3337C17.495 5.28437 17.5054 5.23151 17.5053 5.17814C17.5052 5.12477 17.4946 5.07194 17.4741 5.02267C17.4536 4.9734 17.4235 4.92866 17.3857 4.89102C16.0359 3.53687 14.3156 2.61246 12.4414 2.23423C12.285 1.7528 11.9557 1.34642 11.5172 1.0936C11.0787 0.84078 10.562 0.75946 10.067 0.865351C9.57204 0.971242 9.13386 1.25683 8.83715 1.66694C8.54044 2.07705 8.40626 2.58257 8.46053 3.08584L9.20199 9.96498C8.95797 10.1388 8.75143 10.36 8.59469 10.6153C8.43794 10.8707 8.3342 11.155 8.28964 11.4512L5.28092 12.5921C5.25508 12.4285 5.23507 12.2629 5.22435 12.0953C5.22094 12.0421 5.20708 11.99 5.18357 11.9422C5.16005 11.8943 5.12734 11.8516 5.08731 11.8164C5.04727 11.7811 5.00068 11.7542 4.95022 11.7369C4.89975 11.7197 4.84639 11.7126 4.79318 11.716C4.73996 11.7194 4.68795 11.7333 4.64009 11.7568C4.59223 11.7803 4.54948 11.813 4.51426 11.8531C4.47905 11.8931 4.45206 11.9397 4.43485 11.9902C4.41764 12.0406 4.41053 12.094 4.41394 12.1472C4.43149 12.3945 4.46396 12.6405 4.51117 12.8839L3.54247 13.2512C3.3771 12.4747 3.34526 11.6756 3.44831 10.8884C3.45518 10.8355 3.45157 10.7818 3.43769 10.7303C3.4238 10.6788 3.39992 10.6306 3.36739 10.5884C3.33486 10.5461 3.29433 10.5107 3.24811 10.4841C3.20189 10.4575 3.15089 10.4403 3.09802 10.4334C3.04514 10.4265 2.99143 10.4302 2.93996 10.444C2.88848 10.4579 2.84024 10.4818 2.79799 10.5143C2.75574 10.5469 2.72032 10.5874 2.69373 10.6336C2.66715 10.6798 2.64993 10.7308 2.64306 10.7837C2.52302 11.7037 2.56808 12.6377 2.77614 13.5418L1.82036 13.9042L1.81872 13.9049C1.41284 12.2583 1.48688 10.5299 2.03207 8.92402C2.06618 8.82204 2.05844 8.7107 2.01055 8.61442C1.96267 8.51814 1.87855 8.44479 1.77665 8.41046C1.67475 8.37612 1.56339 8.38361 1.467 8.43128C1.37062 8.47895 1.29707 8.5629 1.26251 8.66472C0.63746 10.5068 0.581355 12.4943 1.1015 14.3687C0.743078 14.726 0.529814 15.2036 0.502898 15.709C0.475982 16.2144 0.637324 16.7119 0.95576 17.1053C1.2742 17.4987 1.72713 17.7602 2.22707 17.8392C2.72702 17.9182 3.2385 17.8091 3.66271 17.533L9.32227 13.8479L7.5142 24.3677H4.81141C4.70374 24.3677 4.60047 24.4105 4.52433 24.4866C4.44819 24.5628 4.40542 24.6661 4.40542 24.7737C4.40542 24.8814 4.44819 24.9847 4.52433 25.0608C4.60047 25.137 4.70374 25.1797 4.81141 25.1797H16.1793C16.287 25.1797 16.3903 25.137 16.4664 25.0608C16.5425 24.9847 16.5853 24.8814 16.5853 24.7737C16.5853 24.6661 16.5425 24.5628 16.4664 24.4866C16.3903 24.4105 16.287 24.3677 16.1793 24.3677H13.4765L11.6675 13.8422L14.2332 15.5051C14.1084 15.6311 13.9784 15.7536 13.8395 15.8684C13.7984 15.9023 13.7644 15.9441 13.7394 15.9912C13.7144 16.0383 13.6989 16.0898 13.6939 16.1429C13.6837 16.2501 13.7165 16.357 13.7851 16.44C13.8536 16.523 13.9524 16.5754 14.0596 16.5856C14.1127 16.5907 14.1662 16.5852 14.2172 16.5696C14.2682 16.5539 14.3156 16.5284 14.3567 16.4944C14.5574 16.3264 14.7472 16.1457 14.9249 15.9535L15.7945 16.5171C15.2555 17.1221 14.6155 17.6288 13.903 18.0147C13.8562 18.0402 13.8148 18.0746 13.7812 18.116C13.7476 18.1574 13.7226 18.2051 13.7074 18.2562C13.6923 18.3073 13.6873 18.3609 13.6929 18.4139C13.6985 18.467 13.7144 18.5184 13.7399 18.5652C13.7653 18.6121 13.7997 18.6535 13.8411 18.6871C13.8826 18.7206 13.9302 18.7457 13.9813 18.7608C14.0324 18.776 14.0861 18.7809 14.1391 18.7753C14.1921 18.7698 14.2435 18.7538 14.2904 18.7284C15.1218 18.2774 15.8642 17.679 16.4817 16.9625L17.3399 17.5187C16.4182 18.6207 15.2438 19.4838 13.9168 20.0342C13.8675 20.0546 13.8228 20.0845 13.7851 20.1222C13.7474 20.1599 13.7175 20.2047 13.6971 20.254C13.6767 20.3032 13.6662 20.356 13.6662 20.4093C13.6662 20.4626 13.6767 20.5154 13.6971 20.5647C13.7176 20.6139 13.7475 20.6587 13.7852 20.6964C13.8229 20.7341 13.8676 20.764 13.9169 20.7844C13.9662 20.8048 14.019 20.8153 14.0723 20.8153C14.1256 20.8153 14.1784 20.8048 14.2276 20.7843C15.7626 20.147 17.1085 19.1269 18.1369 17.8214C18.4923 17.8773 18.8561 17.8386 19.1917 17.709C19.5273 17.5794 19.8228 17.3635 20.0483 17.0832C20.2738 16.803 20.4214 16.4681 20.4762 16.1126C20.5309 15.757 20.4909 15.3933 20.3602 15.0582ZM9.07438 11.7819C9.07438 11.5008 9.15771 11.2261 9.31385 10.9924C9.46999 10.7587 9.69192 10.5766 9.95157 10.469C10.2112 10.3615 10.4969 10.3333 10.7726 10.3882C11.0482 10.443 11.3014 10.5783 11.5001 10.7771C11.6989 10.9758 11.8342 11.229 11.889 11.5046C11.9439 11.7803 11.9157 12.066 11.8082 12.3256C11.7006 12.5853 11.5185 12.8072 11.2848 12.9634C11.0511 13.1195 10.7764 13.2028 10.4954 13.2028C10.1186 13.2024 9.75745 13.0525 9.49106 12.7862C9.22467 12.5198 9.07481 12.1586 9.07438 11.7819ZM9.26776 2.99881C9.24922 2.82651 9.26715 2.65223 9.3204 2.48732C9.37365 2.32241 9.46101 2.17055 9.57682 2.04162C9.69262 1.9127 9.83427 1.8096 9.99254 1.73902C10.1508 1.66844 10.3222 1.63198 10.4955 1.63199C10.6688 1.63201 10.8401 1.6685 10.9984 1.7391C11.1567 1.8097 11.2983 1.91283 11.4141 2.04177C11.5299 2.17072 11.6172 2.32259 11.6704 2.48751C11.7236 2.65244 11.7415 2.82672 11.723 2.99902L11.0103 9.61118C10.672 9.5281 10.3187 9.5281 9.98046 9.61118L9.26776 2.99881ZM3.21964 16.8526C3.07441 16.9472 2.91091 17.0101 2.73976 17.0373C2.56862 17.0645 2.39367 17.0553 2.22629 17.0104C2.05891 16.9656 1.90285 16.886 1.76827 16.7768C1.63368 16.6676 1.52359 16.5314 1.44514 16.3768C1.36669 16.2223 1.32165 16.053 1.31294 15.8799C1.30423 15.7069 1.33205 15.5339 1.3946 15.3723C1.45714 15.2107 1.55301 15.064 1.67595 14.9419C1.7989 14.8198 1.94618 14.7249 2.10821 14.6635L8.32695 12.3055C8.40845 12.6438 8.5681 12.9582 8.7931 13.2236L3.21964 16.8526ZM8.3381 24.3677L10.1233 13.9812C10.3693 14.026 10.6214 14.026 10.8674 13.9812L12.6526 24.3677H8.3381ZM19.5552 16.358C19.4771 16.5127 19.3673 16.6492 19.2329 16.7587C19.0985 16.8681 18.9426 16.948 18.7753 16.9932C18.608 17.0384 18.433 17.0479 18.2618 17.021C18.0906 16.9941 17.927 16.9315 17.7816 16.8372L12.2008 13.2201C12.4253 12.9541 12.5843 12.6393 12.665 12.3007L18.8885 14.646C19.0506 14.7071 19.1981 14.8017 19.3214 14.9235C19.4446 15.0454 19.5408 15.1918 19.6037 15.3533C19.6666 15.5148 19.6947 15.6877 19.6864 15.8608C19.6781 16.0339 19.6334 16.2033 19.5552 16.358Z" fill="white"/>
</svg>
