<svg width="26" height="20" viewBox="0 0 26 20" fill="none" xmlns="http://www.w3.org/2000/svg">
<path d="M23.2783 1.11111C23.8908 1.11111 24.3889 1.60917 24.3889 2.22167V17.7783C24.3889 18.3906 23.8908 18.8889 23.2783 18.8889H2.72167C2.10917 18.8889 1.61111 18.3906 1.61111 17.7783V2.22167C1.61111 1.60917 2.10917 1.11111 2.72167 1.11111H23.2783ZM23.2783 0H2.72167C1.49972 0 0.5 0.999722 0.5 2.22167V17.7783C0.5 19.0003 1.49972 20 2.72167 20H23.2783C24.5 20 25.5 19.0003 25.5 17.7783V2.22167C25.5 0.999722 24.5 0 23.2783 0Z" fill="white"/>
<path d="M9.6667 4.7222C12.577 4.7222 14.9445 7.0897 14.9445 9.99997C14.9445 12.9105 12.577 15.2778 9.6667 15.2778C6.75642 15.2778 4.38892 12.9105 4.38892 10.0003C4.38892 7.08997 6.7567 4.7222 9.6667 4.7222ZM9.6667 3.61108C6.13781 3.61108 3.27781 6.47108 3.27781 9.99997C3.27781 13.5291 6.13809 16.3889 9.6667 16.3889C13.1956 16.3889 16.0556 13.5291 16.0556 10.0003C16.0556 6.47108 13.1959 3.61108 9.6667 3.61108Z" fill="white"/>
<path d="M11.2116 9.79314C11.0188 9.79314 10.8199 9.80647 10.6193 9.82731C10.5779 9.60342 10.4618 9.40647 10.2952 9.26397C11.5988 7.46342 11.6121 5.32397 9.66684 5.32397C7.72156 5.32397 7.73489 7.46342 9.0385 9.26397C8.87184 9.40647 8.75573 9.60342 8.71434 9.82731C8.51378 9.80647 8.31517 9.79314 8.12239 9.79314C6.18934 9.79314 4.73323 10.807 5.61712 12.3381C5.951 12.9165 6.38767 13.1687 6.85434 13.1687C7.74628 13.1687 8.746 12.2448 9.34212 10.9126C9.44406 10.9493 9.55239 10.9726 9.66684 10.9726C9.78156 10.9726 9.88962 10.9493 9.99156 10.9126C10.5877 12.2448 11.5871 13.169 12.4793 13.169C12.9457 13.169 13.3827 12.9165 13.7166 12.3384C14.6004 10.807 13.1446 9.79314 11.2116 9.79314ZM6.85406 12.0576C6.74628 12.0576 6.61628 11.847 6.57906 11.7826C6.54184 11.7181 6.42461 11.5004 6.47823 11.407C6.59795 11.2001 7.17934 10.909 8.10017 10.904C7.65795 11.6579 7.11628 12.0576 6.85406 12.0576ZM9.66656 8.19453C9.26406 7.4912 9.15739 6.85286 9.27684 6.56453C9.29156 6.52925 9.33045 6.43509 9.66656 6.43509C10.0027 6.43509 10.0416 6.52897 10.0563 6.56453C10.1757 6.85286 10.0693 7.4912 9.66656 8.19453ZM12.7541 11.7829C12.7168 11.8473 12.5868 12.0579 12.4793 12.0579C12.2174 12.0579 11.6754 11.6579 11.2329 10.9043C12.1538 10.909 12.7352 11.1998 12.8549 11.4073C12.9088 11.5004 12.7916 11.7184 12.7541 11.7829Z" fill="white"/>
<path d="M22.1666 5.00003H17.9999C17.6933 5.00003 17.4444 4.75114 17.4444 4.44447C17.4444 4.1378 17.6933 3.88892 17.9999 3.88892H22.1666C22.4735 3.88892 22.7222 4.1378 22.7222 4.44447C22.7222 4.75114 22.4735 5.00003 22.1666 5.00003Z" fill="white"/>
<path d="M22.1666 7.81253H17.9999C17.6933 7.81253 17.4444 7.56364 17.4444 7.25697C17.4444 6.9503 17.6933 6.70142 17.9999 6.70142H22.1666C22.4735 6.70142 22.7222 6.9503 22.7222 7.25697C22.7222 7.56364 22.4735 7.81253 22.1666 7.81253Z" fill="white"/>
<path d="M22.1666 10.5554H17.9999C17.6933 10.5554 17.4444 10.3066 17.4444 9.99989C17.4444 9.69295 17.6933 9.44434 17.9999 9.44434H22.1666C22.4735 9.44434 22.7222 9.69295 22.7222 9.99989C22.7222 10.3066 22.4735 10.5554 22.1666 10.5554Z" fill="white"/>
<path d="M22.1666 13.3333H17.9999C17.6933 13.3333 17.4444 13.0844 17.4444 12.7777C17.4444 12.4708 17.6933 12.2222 17.9999 12.2222H22.1666C22.4735 12.2222 22.7222 12.4708 22.7222 12.7777C22.7222 13.0844 22.4735 13.3333 22.1666 13.3333Z" fill="white"/>
<path d="M22.1666 16.1111H17.9999C17.6933 16.1111 17.4444 15.8622 17.4444 15.5556C17.4444 15.2486 17.6933 15 17.9999 15H22.1666C22.4735 15 22.7222 15.2486 22.7222 15.5556C22.7222 15.8622 22.4735 16.1111 22.1666 16.1111Z" fill="white"/>
</svg>
