<svg width="14" height="14" viewBox="0 0 14 14" fill="none" xmlns="http://www.w3.org/2000/svg">
<path fill-rule="evenodd" clip-rule="evenodd" d="M7.00002 1.72C4.08396 1.72 1.72002 4.08394 1.72002 7C1.72002 9.91606 4.08396 12.28 7.00002 12.28C9.91609 12.28 12.28 9.91606 12.28 7C12.28 4.08394 9.91609 1.72 7.00002 1.72ZM0.400024 7C0.400024 3.35492 3.35494 0.4 7.00002 0.4C10.6451 0.4 13.6 3.35492 13.6 7C13.6 10.6451 10.6451 13.6 7.00002 13.6C3.35494 13.6 0.400024 10.6451 0.400024 7ZM7.00002 3.7C7.36453 3.7 7.66002 3.99549 7.66002 4.36V6.72662L9.44671 8.51331C9.70446 8.77105 9.70446 9.18894 9.44671 9.44669C9.18897 9.70444 8.77108 9.70444 8.51333 9.44669L6.53333 7.46669C6.40956 7.34292 6.34002 7.17504 6.34002 7V4.36C6.34002 3.99549 6.63552 3.7 7.00002 3.7Z" fill="white"/>
</svg>
