<svg width="18" height="19" viewBox="0 0 18 19" fill="none" xmlns="http://www.w3.org/2000/svg">
<path d="M15.7103 7.15364C15.7027 6.58561 15.5964 6.02323 15.3961 5.49164C15.2223 5.04326 14.957 4.63604 14.6169 4.29602C14.2769 3.95599 13.8697 3.69063 13.4213 3.51689C12.8966 3.31991 12.3422 3.2134 11.7818 3.20189C11.0603 3.16964 10.8316 3.16064 9.00005 3.16064C7.16855 3.16064 6.9338 3.16064 6.21755 3.20189C5.65742 3.21349 5.10331 3.32 4.5788 3.51689C4.13035 3.69051 3.72307 3.95583 3.38303 4.29587C3.04299 4.63591 2.77767 5.04319 2.60405 5.49164C2.40668 6.01599 2.3004 6.57023 2.2898 7.13039C2.25755 7.85264 2.2478 8.08139 2.2478 9.91289C2.2478 11.7444 2.2478 11.9784 2.2898 12.6954C2.30105 13.2564 2.4068 13.8099 2.60405 14.3356C2.77796 14.784 3.04347 15.1911 3.38363 15.531C3.72378 15.8709 4.1311 16.1361 4.57955 16.3096C5.10263 16.5145 5.65683 16.6287 6.2183 16.6471C6.94055 16.6794 7.1693 16.6891 9.0008 16.6891C10.8323 16.6891 11.0671 16.6891 11.7833 16.6471C12.3437 16.6361 12.8981 16.5298 13.4228 16.3329C13.8711 16.159 14.2782 15.8935 14.6182 15.5535C14.9582 15.2135 15.2236 14.8064 15.3976 14.3581C15.5948 13.8331 15.7006 13.2796 15.7118 12.7179C15.7441 11.9964 15.7538 11.7676 15.7538 9.93539C15.7523 8.10389 15.7523 7.87139 15.7103 7.15364ZM8.99555 13.3764C7.08005 13.3764 5.5283 11.8246 5.5283 9.90914C5.5283 7.99364 7.08005 6.44189 8.99555 6.44189C9.91513 6.44189 10.797 6.80719 11.4473 7.45743C12.0975 8.10766 12.4628 8.98957 12.4628 9.90914C12.4628 10.8287 12.0975 11.7106 11.4473 12.3609C10.797 13.0111 9.91513 13.3764 8.99555 13.3764ZM12.6008 7.12214C12.4946 7.12224 12.3894 7.1014 12.2913 7.0608C12.1932 7.02021 12.104 6.96066 12.0289 6.88556C11.9538 6.81046 11.8942 6.7213 11.8536 6.62316C11.8131 6.52502 11.7922 6.41985 11.7923 6.31364C11.7923 6.20752 11.8132 6.10243 11.8538 6.00439C11.8944 5.90634 11.954 5.81726 12.029 5.74221C12.104 5.66717 12.1931 5.60765 12.2912 5.56703C12.3892 5.52642 12.4943 5.50552 12.6004 5.50552C12.7066 5.50552 12.8116 5.52642 12.9097 5.56703C13.0077 5.60765 13.0968 5.66717 13.1719 5.74221C13.2469 5.81726 13.3064 5.90634 13.347 6.00439C13.3877 6.10243 13.4086 6.20752 13.4086 6.31364C13.4086 6.76064 13.0471 7.12214 12.6008 7.12214Z" fill="white"/>
<path d="M8.99554 12.1612C10.2394 12.1612 11.2478 11.1529 11.2478 9.90899C11.2478 8.66511 10.2394 7.65674 8.99554 7.65674C7.75165 7.65674 6.74329 8.66511 6.74329 9.90899C6.74329 11.1529 7.75165 12.1612 8.99554 12.1612Z" fill="white"/>
</svg>
