<svg width="16" height="16" viewBox="0 0 14 14" fill="none" xmlns="http://www.w3.org/2000/svg">
<path fill-rule="evenodd" clip-rule="evenodd" d="M7 1.72C4.084 1.72 1.72 4.084 1.72 7c0 2.916 2.364 5.28 5.28 5.28 2.916 0 5.28-2.364 5.28-5.28 0-2.916-2.364-5.28-5.28-5.28ZM.4 7C.4 3.355 3.355.4 7 .4c3.645 0 6.6 2.955 6.6 6.6 0 3.645-2.955 6.6-6.6 6.6-3.645 0-6.6-2.955-6.6-6.6Zm6.6-3.3c.365 0 .66.296.66.66v2.367l1.787 1.787a.66.66 0 1 1-.933.933L6.533 7.467A.66.66 0 0 1 6.34 7V4.36c0-.364.296-.66.66-.66Z" fill="#6C6C78"/>
</svg>
