<svg width="22" height="22" viewBox="0 0 22 22" fill="none" xmlns="http://www.w3.org/2000/svg" aria-label="call us icon"><path d="M4.34341 14.5247C1.47302 11.0997 0.1127 7.57467 0.599419 4.83716V4.77466L0.636859 4.71216C2.09702 0.874635 6.27781 0.774635 6.92676 2.84965L8.1498 6.53717C8.36196 7.14967 8.19972 7.83718 7.73796 8.29968L6.48997 9.54969C7.6506 12.0997 9.68484 14.1497 12.2308 15.3247L13.2915 14.2622C13.7159 13.8372 14.3399 13.6622 14.9264 13.8122L19.1322 14.8622C21.1415 15.4372 21.2912 19.6247 17.1853 21.2873H17.1479L17.1104 21.3123C12.9296 22.4748 7.26372 18.0497 4.31845 14.5247H4.34341Z" fill="rgba(255, 255, 255, 0.5)"></path><g filter="url(#filter0_d_2012_24681)"><path fill-rule="evenodd" clip-rule="evenodd" d="M10.0065 2.8907C10.0669 2.34173 10.5609 1.94567 11.1099 2.00609C15.7559 2.51738 19.4221 6.18492 19.9442 10.8284C20.0059 11.3772 19.6111 11.8721 19.0622 11.9338C18.5134 11.9955 18.0185 11.6006 17.9568 11.0518C17.5389 7.33525 14.6051 4.4028 10.8911 3.99409C10.3421 3.93367 9.94608 3.43967 10.0065 2.8907ZM10.019 6.80869C10.1247 6.26662 10.6498 5.91287 11.1919 6.01857C13.5916 6.48651 15.4641 8.35901 15.932 10.7587C16.0377 11.3008 15.684 11.8259 15.1419 11.9316C14.5998 12.0373 14.0747 11.6836 13.969 11.1415C13.6569 9.54116 12.4094 8.29366 10.8091 7.9816C10.267 7.8759 9.91328 7.35077 10.019 6.80869Z" fill="#ffffff !important"></path></g><defs><filter id="filter0_d_2012_24681" x="8.00031" y="0.5" width="13.9503" height="13.9502" filterUnits="userSpaceOnUse" color-interpolation-filters="sRGB"><feFlood flood-opacity="0" result="BackgroundImageFix"></feFlood><feColorMatrix in="SourceAlpha" type="matrix" values="0 0 0 0 0 0 0 0 0 0 0 0 0 0 0 0 0 0 127 0" result="hardAlpha"></feColorMatrix><feOffset dy="0.5"></feOffset><feGaussianBlur stdDeviation="1"></feGaussianBlur><feComposite in2="hardAlpha" operator="out"></feComposite><feColorMatrix type="matrix" values="0 0 0 0 0.0904531 0 0 0 0 0.280421 0 0 0 0 0.605295 0 0 0 0.3 0"></feColorMatrix><feBlend mode="normal" in2="BackgroundImageFix" result="effect1_dropShadow_2012_24681"></feBlend><feBlend mode="normal" in="SourceGraphic" in2="effect1_dropShadow_2012_24681" result="shape"></feBlend></filter></defs></svg>