<svg width="20" height="15" viewBox="0 0 20 15" fill="none" xmlns="http://www.w3.org/2000/svg">
<path d="M18.3333 2.94946V11.2828C18.3333 11.8353 18.1138 12.3652 17.7231 12.7559C17.3324 13.1466 16.8025 13.3661 16.25 13.3661H3.75C3.19746 13.3661 2.66756 13.1466 2.27686 12.7559C1.88616 12.3652 1.66666 11.8353 1.66666 11.2828V2.94946" stroke="#6C6C78" stroke-width="1.4" stroke-linecap="round" stroke-linejoin="round"/>
<path d="M18.3333 2.94954C18.3333 2.39701 18.1138 1.86711 17.7231 1.47641C17.3324 1.0857 16.8025 0.866211 16.25 0.866211H3.75C3.19746 0.866211 2.66756 1.0857 2.27686 1.47641C1.88616 1.86711 1.66666 2.39701 1.66666 2.94954L8.89583 7.46343C9.22694 7.67038 9.60954 7.7801 10 7.7801C10.3905 7.7801 10.7731 7.67038 11.1042 7.46343L18.3333 2.94954Z" stroke="#6C6C78" stroke-width="1.4" stroke-linecap="round" stroke-linejoin="round"/>
</svg>
