<svg width="14" height="14" viewBox="0 0 14 14" fill="none" xmlns="http://www.w3.org/2000/svg">
<path fill-rule="evenodd" clip-rule="evenodd" d="M0.400024 2.38C0.400024 1.28648 1.2865 0.4 2.38002 0.4H4.54432C5.11249 0.4 5.61691 0.763567 5.79659 1.30258L6.78514 4.26825C6.99287 4.89144 6.71075 5.57254 6.1232 5.86631L5.22788 6.31397C5.81305 7.33606 6.66396 8.18697 7.68605 8.77214L8.13371 7.87682C8.42748 7.28927 9.10859 7.00715 9.73178 7.21488L12.6974 8.20344C13.2365 8.38311 13.6 8.88753 13.6 9.4557V11.62C13.6 12.7135 12.7135 13.6 11.62 13.6H10.96C5.1279 13.6 0.400024 8.87213 0.400024 3.04V2.38ZM2.38002 1.72C2.01552 1.72 1.72002 2.01549 1.72002 2.38V3.04C1.72002 8.14311 5.85691 12.28 10.96 12.28H11.62C11.9845 12.28 12.28 11.9845 12.28 11.62V9.4557L9.31435 8.46714L8.56946 9.95694C8.41105 10.2738 8.03078 10.409 7.70786 10.2634C5.94761 9.46981 4.53021 8.05241 3.73658 6.29216C3.59098 5.96924 3.72626 5.58898 4.04309 5.43057L5.53288 4.68567L4.54432 1.72H2.38002Z" fill="white"/>
</svg>
