<svg width="40" height="38" viewBox="0 0 40 38" fill="none" xmlns="http://www.w3.org/2000/svg"><path d="M29.471 0C31.3119 0 32.8043 1.45632 32.8043 3.25279V5.47214H33.3338C37.0157 5.47214 40.0005 8.38478 40.0005 11.9777V31.4944C40.0005 35.0874 37.0157 38 33.3338 38H6.66716C2.98526 38 0.000488281 35.0874 0.000488281 31.4944V11.9777C0.000488281 8.38478 2.98526 5.47214 6.66716 5.47214H7.19667V3.25279C7.19667 1.45632 8.68905 0 10.53 0C12.371 0 13.8633 1.45632 13.8633 3.25279V5.47214H26.1376V3.25279C26.1376 1.45632 27.63 0 29.471 0Z" fill="rgba(255, 255, 255, 0.5)"></path><g filter="url(#filter0_d_3143_25523)"><path fill-rule="evenodd" clip-rule="evenodd" d="M30.4142 14.5858C31.1953 15.3668 31.1953 16.6332 30.4142 17.4142L18.4142 29.4142C17.6332 30.1953 16.3668 30.1953 15.5858 29.4142L10.5858 24.4142C9.80474 23.6332 9.80474 22.3668 10.5858 21.5858C11.3668 20.8047 12.6332 20.8047 13.4142 21.5858L17 25.1716L27.5858 14.5858C28.3668 13.8047 29.6332 13.8047 30.4142 14.5858Z" fill="#ffffff"></path></g><defs><filter id="filter0_d_3143_25523" x="9" y="14" width="23" height="18" filterUnits="userSpaceOnUse" color-interpolation-filters="sRGB"><feFlood flood-opacity="0" result="BackgroundImageFix"></feFlood><feColorMatrix in="SourceAlpha" type="matrix" values="0 0 0 0 0 0 0 0 0 0 0 0 0 0 0 0 0 0 127 0" result="hardAlpha"></feColorMatrix><feOffset dy="1"></feOffset><feGaussianBlur stdDeviation="0.5"></feGaussianBlur><feComposite in2="hardAlpha" operator="out"></feComposite><feColorMatrix type="matrix" values="0 0 0 0 0.0980392 0 0 0 0 0.0980392 0 0 0 0 0.0980392 0 0 0 0.15 0"></feColorMatrix><feBlend mode="normal" in2="BackgroundImageFix" result="effect1_dropShadow_3143_25523"></feBlend><feBlend mode="normal" in="SourceGraphic" in2="effect1_dropShadow_3143_25523" result="shape"></feBlend></filter></defs></svg>