<svg width="14" height="12" viewBox="0 0 14 12" fill="none" xmlns="http://www.w3.org/2000/svg">
<path fill-rule="evenodd" clip-rule="evenodd" d="M0.399973 2.70012C0.399973 1.60659 1.28645 0.720118 2.37997 0.720118H11.62C12.7135 0.720118 13.6 1.60659 13.6 2.70012V3.34988C13.6001 3.3563 13.6001 3.36273 13.6 3.36915V9.30012C13.6 10.3936 12.7135 11.2801 11.62 11.2801H2.37997C1.28645 11.2801 0.399973 10.3936 0.399973 9.30012V3.36914C0.399879 3.36273 0.399879 3.3563 0.399973 3.34988V2.70012ZM1.71997 4.59334V9.30012C1.71997 9.66463 2.01546 9.96012 2.37997 9.96012H11.62C11.9845 9.96012 12.28 9.66463 12.28 9.30012V4.59334L8.09828 7.38113C7.4332 7.82452 6.56675 7.82452 5.90167 7.38113L1.71997 4.59334ZM12.28 3.0069L7.36608 6.28283C7.14438 6.43062 6.85556 6.43062 6.63387 6.28283L1.71997 3.0069V2.70012C1.71997 2.33561 2.01546 2.04012 2.37997 2.04012H11.62C11.9845 2.04012 12.28 2.33561 12.28 2.70012V3.0069Z" fill="white"/>
</svg>
