<svg width="10" height="10" viewBox="0 0 10 10" fill="none" xmlns="http://www.w3.org/2000/svg">
<path fill-rule="evenodd" clip-rule="evenodd" d="M0.573192 0.573311C0.830938 0.315565 1.24883 0.315565 1.50657 0.573311L4.99988 4.06662L8.49319 0.573311C8.75094 0.315565 9.16883 0.315565 9.42657 0.573311C9.68432 0.831057 9.68432 1.24895 9.42657 1.50669L5.93326 5L9.42657 8.49331C9.68432 8.75106 9.68432 9.16895 9.42657 9.42669C9.16883 9.68444 8.75094 9.68444 8.49319 9.42669L4.99988 5.93338L1.50657 9.42669C1.24883 9.68444 0.830938 9.68444 0.573192 9.42669C0.315446 9.16895 0.315446 8.75106 0.573192 8.49331L4.0665 5L0.573192 1.50669C0.315446 1.24895 0.315446 0.831057 0.573192 0.573311Z" fill="#252529"/>
</svg>
