<svg width="8" height="14" viewBox="0 0 8 14" fill="none" xmlns="http://www.w3.org/2000/svg">
<path d="M5.83437 0.102876C6.20896 0.102876 6.57254 0.124912 6.94713 0.135929C7.18952 0.135929 7.4319 0.179999 7.65225 0.202034L7.63022 2.42757H7.45394C7.21155 2.42757 6.96917 2.42757 6.71576 2.42757C6.52847 2.42757 6.35219 2.42757 6.16489 2.42757C5.56995 2.4496 5.14026 2.66995 5.10721 3.40812C5.08518 3.93696 5.07416 5.11583 5.07416 5.17092C5.10721 5.17092 5.69114 5.17092 6.27507 5.17092C6.57254 5.17092 6.85899 5.17092 7.05731 5.17092H7.53106C7.40987 6.03029 7.29969 6.84558 7.1785 7.67189H5.06314L5.01907 13.9298H2.42996L2.47403 7.66087H0.347656L0.369691 5.17092H2.49607V4.98362C2.49607 4.47682 2.49607 3.98103 2.5181 3.47423C2.5181 3.15472 2.54014 2.83521 2.59522 2.51571C2.73845 1.7555 3.09101 1.11649 3.73002 0.653751C4.29192 0.257121 4.91991 0.0918592 5.603 0.0698242C5.6691 0.0698242 5.73521 0.0698242 5.81233 0.0698242L5.83437 0.102876Z" fill="white"/>
</svg>
