<svg width="16" height="20" viewBox="0 0 16 20" fill="none" xmlns="http://www.w3.org/2000/svg">
<path d="M14.8608 8.95631C14.8608 14.3351 9.35164 17.6489 8.20675 18.2801C8.14333 18.3151 8.07208 18.3334 7.99964 18.3334C7.92721 18.3334 7.85596 18.3151 7.79254 18.2801C6.64679 17.6489 1.13931 14.3351 1.13931 8.95631C1.13931 4.66833 3.7121 1.66675 8.00007 1.66675C12.288 1.66675 14.8608 4.66833 14.8608 8.95631Z" stroke="#6C6C78" stroke-width="1.4" stroke-linecap="round" stroke-linejoin="round"/>
<path d="M4.56972 8.52755C4.56972 9.43734 4.93113 10.3099 5.57445 10.9532C6.21777 11.5965 7.0903 11.9579 8.0001 11.9579C8.90989 11.9579 9.78242 11.5965 10.4257 10.9532C11.0691 10.3099 11.4305 9.43734 11.4305 8.52755C11.4305 7.61775 11.0691 6.74522 10.4257 6.1019C9.78242 5.45858 8.90989 5.09717 8.0001 5.09717C7.0903 5.09717 6.21777 5.45858 5.57445 6.1019C4.93113 6.74522 4.56972 7.61775 4.56972 8.52755V8.52755Z" stroke="#6C6C78" stroke-width="1.4" stroke-linecap="round" stroke-linejoin="round"/>
</svg>
