<svg width="18" height="19" viewBox="0 0 18 19" fill="none" xmlns="http://www.w3.org/2000/svg">
<path d="M3.73719 6.32253C4.64349 6.32253 5.37819 5.58783 5.37819 4.68153C5.37819 3.77523 4.64349 3.04053 3.73719 3.04053C2.83089 3.04053 2.09619 3.77523 2.09619 4.68153C2.09619 5.58783 2.83089 6.32253 3.73719 6.32253Z" fill="white"/>
<path d="M6.92779 7.56582V16.6701H9.75454V12.1678C9.75454 10.9798 9.97804 9.82932 11.451 9.82932C12.9038 9.82932 12.9218 11.1876 12.9218 12.2428V16.6708H15.75V11.6781C15.75 9.22557 15.222 7.34082 12.3555 7.34082C10.9793 7.34082 10.0568 8.09607 9.67954 8.81082H9.64129V7.56582H6.92779ZM2.32129 7.56582H5.15254V16.6701H2.32129V7.56582Z" fill="white"/>
</svg>
