<svg width="12" height="10" viewBox="0 0 12 10" fill="none" xmlns="http://www.w3.org/2000/svg">
<path fill-rule="evenodd" clip-rule="evenodd" d="M0.0600586 1.04C0.0600586 0.675489 0.355551 0.379997 0.720059 0.379997H11.2801C11.6446 0.379997 11.9401 0.675489 11.9401 1.04C11.9401 1.40451 11.6446 1.7 11.2801 1.7H0.720059C0.355551 1.7 0.0600586 1.40451 0.0600586 1.04ZM0.0600586 5C0.0600586 4.63549 0.355551 4.34 0.720059 4.34H11.2801C11.6446 4.34 11.9401 4.63549 11.9401 5C11.9401 5.3645 11.6446 5.66 11.2801 5.66H0.720059C0.355551 5.66 0.0600586 5.3645 0.0600586 5ZM0.0600586 8.96C0.0600586 8.59549 0.355551 8.3 0.720059 8.3H11.2801C11.6446 8.3 11.9401 8.59549 11.9401 8.96C11.9401 9.3245 11.6446 9.62 11.2801 9.62H0.720059C0.355551 9.62 0.0600586 9.3245 0.0600586 8.96Z" fill="#252529"/>
</svg>
